<svg xmlns="http://www.w3.org/2000/svg"
    xmlns:xlink="http://www.w3.org/1999/xlink" version="1.1" id="Layer_1" viewBox="275 495 125 40" xml:space="preserve">
    <script xmlns="" id="eppiocemhmnlbhjplcgkofciiegomcon"/>
    <script xmlns=""/>
    <script xmlns=""/>
    <g>
        <path d="M295.6,506.3c-1.3-0.9-2.9-1.4-4.6-1.3c-1.3,0-2.7,0.2-3.9,0.8c-1,0.5-2,1.3-2.6,2.3c-0.7,1-1.2,2.1-1.5,3.3   c-0.3,1.2-0.5,2.5-0.5,3.8c0,1.4,0.2,2.7,0.5,4.1c0.3,1.2,0.8,2.3,1.5,3.4c0.7,1,1.6,1.7,2.7,2.3c1.2,0.6,2.5,0.9,3.9,0.8   c1,0,2-0.2,2.9-0.5c0.8-0.3,1.6-0.9,2.2-1.5c0.6-0.7,1.1-1.5,1.5-2.3c0.4-0.9,0.6-1.9,0.6-2.9h3.4c-0.2,2.8-1.3,5.4-3.3,7.4   c-1.9,1.8-4.4,2.6-7.6,2.6c-1.8,0-3.5-0.3-5.1-1c-1.4-0.6-2.7-1.6-3.6-2.8c-1-1.2-1.7-2.7-2.2-4.2c-0.5-1.7-0.7-3.4-0.7-5.1   c0-1.8,0.2-3.5,0.8-5.2c0.5-1.5,1.3-3,2.3-4.2c1-1.2,2.3-2.2,3.7-2.8c1.6-0.7,3.4-1.1,5.1-1c1.3,0,2.5,0.2,3.7,0.5   c1.1,0.3,2.2,0.9,3.1,1.6c0.9,0.7,1.7,1.5,2.3,2.5c0.6,1.1,1,2.3,1.2,3.5h-3.4C297.8,508.7,296.9,507.3,295.6,506.3"/>
    </g>
    <path d="M308.5,509.7V528h-3v-18.2L308.5,509.7z M305.5,502.8h3v3.7h-3V502.8z"/>
    <g>
        <path d="M321,509.7v2.6h-3.6v11.3c0,0.3,0,0.6,0.1,0.8c0,0.2,0.2,0.4,0.3,0.5c0.2,0.1,0.4,0.2,0.7,0.2c0.4,0,0.8,0.1,1.1,0h1.4v2.6   h-2.3c-0.7,0-1.3,0-2-0.2c-0.5-0.1-1-0.3-1.3-0.6c-0.4-0.3-0.6-0.7-0.8-1.2c-0.2-0.7-0.3-1.4-0.2-2v-11.6h-3.1v-2.6h3.1v-5.5h3v5.5   H321z"/>
        <path d="M331.5,530.4c-0.3,0.8-0.6,1.5-1,2.2c-0.3,0.6-0.7,1.1-1.1,1.5c-0.4,0.4-0.9,0.7-1.4,0.8c-0.6,0.2-1.2,0.3-1.7,0.3   c-0.4,0-0.7,0-1.1-0.1c-0.3,0-0.7-0.1-1-0.2v-2.8c0.3,0.1,0.6,0.2,0.9,0.3c0.3,0.1,0.6,0.1,0.8,0.1c0.5,0,1.1-0.1,1.5-0.4   c0.4-0.3,0.8-0.7,1-1.2l1.2-3.1l-7.2-18.1h3.4l5.3,14.9h0.1l5.1-14.9h3.2L331.5,530.4z"/>
        <path d="M354.9,524.2c-0.2,0.8-0.7,1.6-1.2,2.2c-0.6,0.7-1.4,1.2-2.3,1.6c-1.1,0.4-2.3,0.6-3.5,0.6c-2,0.1-3.9-0.5-5.4-1.9   c-1.3-1.2-1.9-3-1.9-5.5v-1.6h3.4v1.1c0,0.7,0.1,1.3,0.2,2c0.1,0.6,0.3,1.1,0.6,1.6c0.3,0.5,0.7,0.8,1.2,1c0.6,0.3,1.3,0.4,2,0.4   c1.5,0,2.6-0.4,3.2-1.2c0.6-1,0.9-2.2,0.8-3.3v-18.4h3.4v18.9C355.2,522.6,355.1,523.4,354.9,524.2"/>
        <path d="M373.4,506.2c-1.3-0.9-2.8-1.3-4.3-1.2c-0.7,0-1.4,0.1-2.1,0.2c-0.6,0.1-1.3,0.4-1.8,0.7c-0.5,0.3-1,0.8-1.3,1.3   c-0.3,0.6-0.5,1.3-0.5,2.1c0,0.7,0.2,1.4,0.7,1.9c0.5,0.5,1.1,0.9,1.8,1.2c0.8,0.3,1.7,0.6,2.6,0.8c1,0.2,1.9,0.4,2.9,0.7   c1,0.2,2,0.5,2.9,0.8c0.9,0.3,1.8,0.7,2.6,1.3c0.8,0.5,1.4,1.2,1.8,2c1,2.1,0.9,4.5-0.2,6.5c-0.6,0.9-1.4,1.7-2.3,2.3   c-1,0.6-2,1.1-3.2,1.3c-1.1,0.3-2.3,0.4-3.5,0.4c-1.4,0-2.7-0.2-4-0.5c-1.2-0.3-2.3-0.9-3.3-1.6c-1-0.7-1.7-1.7-2.3-2.8   c-0.6-1.2-0.9-2.6-0.8-4h3.2c0,0.9,0.2,1.9,0.6,2.7c0.4,0.7,0.9,1.4,1.6,1.9c0.7,0.5,1.5,0.9,2.3,1.1c0.9,0.2,1.8,0.4,2.8,0.4   c0.8,0,1.5-0.1,2.3-0.2c0.7-0.1,1.4-0.4,2.1-0.7c1.3-0.7,2.1-2.1,2-3.7c0-0.8-0.2-1.5-0.7-2.1c-0.5-0.6-1.1-1-1.8-1.3   c-0.8-0.4-1.7-0.6-2.6-0.8l-2.9-0.7c-1-0.2-2-0.5-2.9-0.8c-0.9-0.3-1.8-0.7-2.6-1.2c-0.8-0.5-1.4-1.1-1.8-1.9   c-0.5-0.9-0.7-1.9-0.7-2.9c0-1.1,0.2-2.3,0.8-3.3c0.5-0.9,1.2-1.7,2.1-2.3c0.9-0.6,1.9-1.1,2.9-1.3c1.1-0.3,2.2-0.4,3.4-0.4   c1.2,0,2.4,0.1,3.6,0.5c1.1,0.3,2,0.8,2.9,1.4c0.8,0.7,1.5,1.5,2,2.5c0.5,1.1,0.8,2.3,0.8,3.6h-3.2   C375.3,508.6,374.6,507.2,373.4,506.2"/>
    </g>
    <polygon points="379.6,500.5 379.6,500 383.4,500 383.4,500.5 381.8,500.5 381.8,504.8 381.2,504.8 381.2,500.5 "/>
    <polygon points="384.8,500 386.3,504 387.9,500 388.7,500 388.7,504.8 388.1,504.8 388.1,500.8 386.6,504.8 386,504.8 384.6,500.8  384.6,504.8 384,504.8 384,500 "/>
    <script xmlns=""/>
</svg>